# xmcd
#
# Track frame offsets: 
#        150
#        27431
#        48730
#        56325
#        78466
#        95025
#        108765
#        132838
#        135974
#        210704
#        225304
#        240231
#        260627
#        279066
#
# Disc length: 4103 seconds
#
# Revision: 1
# Processed by: cddbd v1.5.2PL0 Copyright (c) Steve Scherf et al.
# Submitted via: ExactAudioCopy v0.99pb5
#
DISCID=b210050e
DTITLE=Steamhammer - Mk II (1969)
DYEAR=1969
DGENRE=Rock
TTITLE0=Supposed To Be Free
TTITLE1=Johnny Carl Morton
TTITLE2=Sunset Chase
TTITLE3=Contemporary Chick Con Song
TTITLE4=Turn Around
TTITLE5=6 8 For Amiran
TTITLE6=Passing Through
TTITLE7=Down Along The Grove
TTITLE8=Another Travelling Tune
TTITLE9=Fran And Dee Take A Ride
TTITLE10=Juniors Wailing (single version)
TTITLE11=Windmill
TTITLE12=Autumn Song
TTITLE13=Blues For Passing People
EXTD=
EXTT0=
EXTT1=
EXTT2=
EXTT3=
EXTT4=
EXTT5=
EXTT6=
EXTT7=
EXTT8=
EXTT9=
EXTT10=
EXTT11=
EXTT12=
EXTT13=
PLAYORDER=
